<?xml version="1.0" encoding="UTF-8"?>
<svg xmlns="http://www.w3.org/2000/svg" xmlns:xlink="http://www.w3.org/1999/xlink" width="841.89pt" height="595.276pt" viewBox="0 0 841.89 595.276">
<path fill-rule="nonzero" fill="rgb(13.725281%, 12.156677%, 12.548828%)" fill-opacity="1" d="M 227.386719 382 C 227.628906 382.121094 227.871094 382.25 228.117188 382.386719 C 228.363281 382.523438 228.585938 382.679688 228.78125 382.855469 C 228.976562 383.027344 229.140625 383.222656 229.265625 383.4375 C 229.390625 383.648438 229.453125 383.894531 229.453125 384.179688 C 229.453125 384.488281 229.394531 384.773438 229.28125 385.039062 C 229.164062 385.308594 229.011719 385.542969 228.8125 385.738281 C 228.617188 385.933594 228.382812 386.089844 228.117188 386.203125 C 227.847656 386.320312 227.5625 386.378906 227.257812 386.378906 C 226.953125 386.378906 226.664062 386.320312 226.394531 386.203125 C 226.128906 386.089844 225.898438 385.933594 225.699219 385.738281 C 225.503906 385.542969 225.347656 385.308594 225.234375 385.039062 C 225.117188 384.773438 225.0625 384.488281 225.0625 384.179688 L 225.601562 384.179688 C 225.601562 384.410156 225.644531 384.625 225.734375 384.828125 C 225.820312 385.03125 225.9375 385.203125 226.085938 385.351562 C 226.230469 385.5 226.40625 385.617188 226.609375 385.707031 C 226.8125 385.792969 227.027344 385.835938 227.257812 385.835938 C 227.488281 385.835938 227.703125 385.792969 227.902344 385.707031 C 228.105469 385.617188 228.28125 385.5 228.429688 385.351562 C 228.574219 385.203125 228.691406 385.03125 228.78125 384.828125 C 228.867188 384.625 228.910156 384.410156 228.910156 384.179688 C 228.910156 383.984375 228.863281 383.808594 228.765625 383.648438 C 228.667969 383.488281 228.535156 383.34375 228.371094 383.214844 C 228.207031 383.082031 228.019531 382.960938 227.804688 382.84375 C 227.59375 382.730469 227.371094 382.613281 227.140625 382.492188 C 226.890625 382.371094 226.640625 382.246094 226.394531 382.105469 C 226.152344 381.972656 225.929688 381.816406 225.734375 381.648438 C 225.535156 381.480469 225.375 381.289062 225.25 381.074219 C 225.121094 380.859375 225.0625 380.613281 225.0625 380.328125 C 225.0625 380.023438 225.117188 379.738281 225.234375 379.46875 C 225.347656 379.199219 225.503906 378.96875 225.699219 378.773438 C 225.898438 378.574219 226.128906 378.421875 226.394531 378.304688 C 226.664062 378.191406 226.953125 378.132812 227.257812 378.132812 C 227.5625 378.132812 227.847656 378.191406 228.117188 378.304688 C 228.382812 378.421875 228.617188 378.574219 228.8125 378.773438 C 229.011719 378.96875 229.164062 379.199219 229.28125 379.46875 C 229.394531 379.738281 229.453125 380.023438 229.453125 380.328125 L 228.910156 380.328125 C 228.910156 380.101562 228.867188 379.882812 228.78125 379.679688 C 228.691406 379.480469 228.574219 379.304688 228.429688 379.15625 C 228.28125 379.007812 228.105469 378.890625 227.902344 378.804688 C 227.703125 378.71875 227.488281 378.671875 227.257812 378.671875 C 227.027344 378.671875 226.8125 378.71875 226.609375 378.804688 C 226.40625 378.890625 226.230469 379.007812 226.085938 379.15625 C 225.9375 379.304688 225.820312 379.480469 225.734375 379.679688 C 225.644531 379.882812 225.601562 380.101562 225.601562 380.328125 C 225.601562 380.527344 225.652344 380.703125 225.75 380.859375 C 225.847656 381.019531 225.980469 381.164062 226.152344 381.296875 C 226.320312 381.425781 226.511719 381.550781 226.722656 381.664062 C 226.9375 381.777344 227.160156 381.890625 227.386719 382 "/>
<path fill-rule="nonzero" fill="rgb(13.725281%, 12.156677%, 12.548828%)" fill-opacity="1" d="M 237.53125 378.214844 L 237.53125 386.296875 L 236.992188 386.296875 L 236.992188 385.625 C 236.785156 385.851562 236.539062 386.035156 236.253906 386.171875 C 235.96875 386.308594 235.664062 386.378906 235.335938 386.378906 C 235.03125 386.378906 234.746094 386.320312 234.476562 386.203125 C 234.207031 386.089844 233.976562 385.933594 233.78125 385.738281 C 233.582031 385.542969 233.429688 385.308594 233.3125 385.039062 C 233.199219 384.773438 233.140625 384.488281 233.140625 384.179688 L 233.140625 378.214844 L 233.679688 378.214844 L 233.679688 384.179688 C 233.679688 384.410156 233.722656 384.625 233.8125 384.828125 C 233.898438 385.03125 234.015625 385.203125 234.164062 385.351562 C 234.3125 385.5 234.488281 385.617188 234.6875 385.707031 C 234.890625 385.792969 235.105469 385.835938 235.335938 385.835938 C 235.566406 385.835938 235.78125 385.792969 235.984375 385.707031 C 236.183594 385.617188 236.359375 385.5 236.507812 385.351562 C 236.65625 385.203125 236.773438 385.03125 236.859375 384.828125 C 236.949219 384.625 236.992188 384.410156 236.992188 384.179688 L 236.992188 378.214844 Z M 237.53125 378.214844 "/>
<path fill-rule="nonzero" fill="rgb(13.725281%, 12.156677%, 12.548828%)" fill-opacity="1" d="M 245.15625 382.246094 L 245.15625 381.835938 C 244.992188 381.902344 244.789062 381.980469 244.546875 382.066406 C 244.304688 382.152344 244.066406 382.246094 243.828125 382.335938 C 243.585938 382.429688 243.367188 382.515625 243.171875 382.589844 C 242.972656 382.667969 242.832031 382.722656 242.746094 382.753906 C 242.539062 382.832031 242.335938 382.945312 242.136719 383.097656 C 241.941406 383.253906 241.84375 383.460938 241.84375 383.722656 L 241.84375 384.179688 C 241.84375 384.410156 241.886719 384.625 241.972656 384.828125 C 242.0625 385.03125 242.179688 385.203125 242.328125 385.351562 C 242.472656 385.5 242.648438 385.617188 242.851562 385.707031 C 243.054688 385.792969 243.269531 385.835938 243.5 385.835938 C 243.726562 385.835938 243.945312 385.792969 244.144531 385.707031 C 244.347656 385.617188 244.523438 385.5 244.671875 385.351562 C 244.816406 385.203125 244.933594 385.03125 245.023438 384.828125 C 245.109375 384.625 245.15625 384.410156 245.15625 384.179688 Z M 243.628906 378.132812 C 243.933594 378.132812 244.214844 378.1875 244.464844 378.304688 C 244.71875 378.421875 244.933594 378.574219 245.113281 378.773438 C 245.292969 378.96875 245.433594 379.199219 245.539062 379.46875 C 245.644531 379.738281 245.695312 380.023438 245.695312 380.328125 L 245.695312 386.296875 L 245.15625 386.296875 L 245.15625 385.625 C 244.945312 385.851562 244.699219 386.035156 244.417969 386.171875 C 244.132812 386.308594 243.828125 386.378906 243.5 386.378906 C 243.191406 386.378906 242.90625 386.320312 242.636719 386.203125 C 242.371094 386.089844 242.136719 385.933594 241.941406 385.738281 C 241.746094 385.542969 241.589844 385.308594 241.472656 385.039062 C 241.359375 384.773438 241.304688 384.488281 241.304688 384.179688 L 241.304688 383.722656 C 241.304688 383.042969 241.71875 382.554688 242.546875 382.246094 C 242.644531 382.203125 242.8125 382.136719 243.046875 382.050781 C 243.28125 381.960938 243.535156 381.867188 243.800781 381.765625 C 244.070312 381.660156 244.328125 381.558594 244.582031 381.46875 C 244.832031 381.375 245.023438 381.300781 245.15625 381.246094 L 245.15625 380.328125 C 245.15625 379.871094 245.015625 379.480469 244.734375 379.15625 C 244.457031 378.835938 244.089844 378.671875 243.628906 378.671875 C 243.402344 378.671875 243.1875 378.71875 242.992188 378.804688 C 242.792969 378.890625 242.621094 379.007812 242.464844 379.15625 C 242.3125 379.304688 242.191406 379.480469 242.105469 379.679688 C 242.015625 379.882812 241.972656 380.101562 241.972656 380.328125 L 241.433594 380.328125 C 241.433594 380.023438 241.492188 379.738281 241.605469 379.46875 C 241.71875 379.199219 241.875 378.96875 242.074219 378.773438 C 242.269531 378.574219 242.5 378.421875 242.769531 378.304688 C 243.035156 378.1875 243.324219 378.132812 243.628906 378.132812 "/>
<path fill-rule="nonzero" fill="rgb(13.725281%, 12.156677%, 12.548828%)" fill-opacity="1" d="M 256.824219 378.671875 C 256.59375 378.671875 256.378906 378.71875 256.175781 378.804688 C 255.972656 378.890625 255.800781 379.007812 255.652344 379.15625 C 255.503906 379.304688 255.386719 379.480469 255.300781 379.679688 C 255.210938 379.882812 255.167969 380.101562 255.167969 380.328125 L 255.167969 382.214844 C 255.332031 382.148438 255.535156 382.070312 255.773438 381.976562 C 256.015625 381.882812 256.253906 381.792969 256.496094 381.707031 C 256.734375 381.617188 256.957031 381.535156 257.160156 381.460938 C 257.363281 381.382812 257.507812 381.328125 257.59375 381.296875 C 257.789062 381.21875 257.988281 381.105469 258.183594 380.953125 C 258.382812 380.800781 258.480469 380.585938 258.480469 380.3125 C 258.480469 380.082031 258.433594 379.871094 258.347656 379.671875 C 258.261719 379.476562 258.144531 379.304688 257.996094 379.15625 C 257.847656 379.007812 257.671875 378.890625 257.472656 378.804688 C 257.269531 378.71875 257.050781 378.671875 256.824219 378.671875 M 257.773438 381.804688 C 257.675781 381.835938 257.511719 381.898438 257.28125 381.992188 C 257.050781 382.085938 256.804688 382.179688 256.539062 382.277344 C 256.269531 382.378906 256.011719 382.476562 255.757812 382.574219 C 255.507812 382.671875 255.308594 382.742188 255.167969 382.789062 L 255.167969 384.179688 C 255.167969 384.410156 255.210938 384.625 255.300781 384.828125 C 255.386719 385.03125 255.503906 385.203125 255.652344 385.351562 C 255.800781 385.5 255.972656 385.617188 256.175781 385.707031 C 256.378906 385.792969 256.59375 385.835938 256.824219 385.835938 C 257.050781 385.835938 257.269531 385.792969 257.472656 385.707031 C 257.671875 385.617188 257.847656 385.5 257.996094 385.351562 C 258.144531 385.203125 258.261719 385.03125 258.347656 384.828125 C 258.433594 384.625 258.480469 384.410156 258.480469 384.179688 L 259.019531 384.179688 C 259.019531 384.488281 258.964844 384.773438 258.847656 385.039062 C 258.734375 385.308594 258.578125 385.542969 258.382812 385.738281 C 258.183594 385.933594 257.953125 386.089844 257.683594 386.203125 C 257.417969 386.320312 257.128906 386.378906 256.824219 386.378906 C 256.515625 386.378906 256.230469 386.320312 255.964844 386.203125 C 255.695312 386.089844 255.464844 385.933594 255.265625 385.738281 C 255.070312 385.542969 254.914062 385.308594 254.800781 385.039062 C 254.683594 384.773438 254.628906 384.488281 254.628906 384.179688 L 254.628906 380.328125 C 254.628906 380.023438 254.683594 379.738281 254.800781 379.46875 C 254.914062 379.199219 255.070312 378.96875 255.265625 378.773438 C 255.464844 378.574219 255.695312 378.421875 255.964844 378.304688 C 256.230469 378.191406 256.515625 378.132812 256.824219 378.132812 C 257.128906 378.132812 257.417969 378.191406 257.683594 378.304688 C 257.953125 378.421875 258.183594 378.574219 258.382812 378.773438 C 258.578125 378.96875 258.734375 379.199219 258.847656 379.46875 C 258.964844 379.738281 259.019531 380.019531 259.019531 380.3125 L 259.019531 380.328125 C 259.019531 381.007812 258.605469 381.5 257.773438 381.804688 "/>
<path fill-rule="nonzero" fill="rgb(13.725281%, 12.156677%, 12.548828%)" fill-opacity="1" d="M 264.984375 385.835938 C 265.214844 385.835938 265.429688 385.792969 265.632812 385.703125 C 265.835938 385.617188 266.007812 385.5 266.15625 385.351562 C 266.304688 385.203125 266.421875 385.03125 266.511719 384.828125 C 266.597656 384.625 266.640625 384.410156 266.640625 384.179688 L 266.640625 380.328125 C 266.640625 380.101562 266.597656 379.882812 266.511719 379.679688 C 266.421875 379.480469 266.304688 379.304688 266.15625 379.15625 C 266.007812 379.007812 265.835938 378.890625 265.632812 378.804688 C 265.429688 378.71875 265.214844 378.671875 264.984375 378.671875 C 264.757812 378.671875 264.539062 378.71875 264.339844 378.804688 C 264.136719 378.890625 263.960938 379.007812 263.8125 379.15625 C 263.667969 379.304688 263.550781 379.480469 263.460938 379.679688 C 263.375 379.882812 263.332031 380.101562 263.332031 380.328125 L 263.332031 384.179688 C 263.332031 384.410156 263.375 384.625 263.460938 384.828125 C 263.550781 385.03125 263.667969 385.203125 263.8125 385.351562 C 263.960938 385.5 264.136719 385.617188 264.339844 385.703125 C 264.539062 385.792969 264.757812 385.835938 264.984375 385.835938 M 267.183594 378.214844 L 267.183594 389.96875 L 266.640625 389.96875 L 266.640625 385.625 C 266.433594 385.851562 266.1875 386.035156 265.902344 386.171875 C 265.621094 386.308594 265.3125 386.378906 264.984375 386.378906 C 264.679688 386.378906 264.390625 386.320312 264.125 386.203125 C 263.855469 386.089844 263.625 385.933594 263.429688 385.738281 C 263.230469 385.542969 263.074219 385.308594 262.960938 385.039062 C 262.847656 384.773438 262.789062 384.488281 262.789062 384.179688 L 262.789062 380.328125 C 262.789062 380.023438 262.847656 379.738281 262.960938 379.46875 C 263.074219 379.199219 263.230469 378.96875 263.429688 378.773438 C 263.625 378.574219 263.855469 378.417969 264.125 378.304688 C 264.390625 378.191406 264.679688 378.132812 264.984375 378.132812 C 265.3125 378.132812 265.621094 378.199219 265.902344 378.328125 C 266.1875 378.460938 266.433594 378.648438 266.640625 378.886719 L 266.640625 378.214844 Z M 267.183594 378.214844 "/>
<path fill-rule="nonzero" fill="rgb(13.725281%, 12.156677%, 12.548828%)" fill-opacity="1" d="M 275.34375 378.214844 L 275.34375 386.296875 L 274.804688 386.296875 L 274.804688 385.625 C 274.59375 385.851562 274.347656 386.035156 274.066406 386.171875 C 273.78125 386.308594 273.476562 386.378906 273.148438 386.378906 C 272.839844 386.378906 272.554688 386.320312 272.285156 386.203125 C 272.019531 386.089844 271.785156 385.933594 271.589844 385.738281 C 271.394531 385.542969 271.238281 385.308594 271.125 385.039062 C 271.007812 384.773438 270.953125 384.488281 270.953125 384.179688 L 270.953125 378.214844 L 271.492188 378.214844 L 271.492188 384.179688 C 271.492188 384.410156 271.535156 384.625 271.621094 384.828125 C 271.710938 385.03125 271.828125 385.203125 271.976562 385.351562 C 272.125 385.5 272.296875 385.617188 272.5 385.707031 C 272.703125 385.792969 272.917969 385.835938 273.148438 385.835938 C 273.375 385.835938 273.59375 385.792969 273.796875 385.707031 C 273.996094 385.617188 274.171875 385.5 274.320312 385.351562 C 274.46875 385.203125 274.585938 385.03125 274.671875 384.828125 C 274.757812 384.625 274.804688 384.410156 274.804688 384.179688 L 274.804688 378.214844 Z M 275.34375 378.214844 "/>
<path fill-rule="nonzero" fill="rgb(13.725281%, 12.156677%, 12.548828%)" fill-opacity="1" d="M 279.800781 376.214844 C 279.683594 376.214844 279.582031 376.175781 279.507812 376.101562 C 279.429688 376.023438 279.390625 375.925781 279.390625 375.804688 C 279.390625 375.683594 279.429688 375.585938 279.507812 375.511719 C 279.582031 375.433594 279.683594 375.394531 279.800781 375.394531 C 279.910156 375.394531 280.007812 375.433594 280.089844 375.511719 C 280.171875 375.585938 280.210938 375.683594 280.210938 375.804688 C 280.210938 375.925781 280.171875 376.023438 280.089844 376.101562 C 280.007812 376.175781 279.910156 376.214844 279.800781 376.214844 M 279.671875 378.082031 L 280.210938 378.082031 L 280.210938 386.179688 L 279.671875 386.179688 L 279.671875 378.640625 L 279.128906 378.640625 L 279.128906 378.082031 Z M 279.671875 378.082031 "/>
<path fill-rule="nonzero" fill="rgb(13.725281%, 12.156677%, 12.548828%)" fill-opacity="1" d="M 287.832031 380.328125 C 287.832031 380.101562 287.789062 379.882812 287.703125 379.679688 C 287.613281 379.480469 287.496094 379.304688 287.347656 379.15625 C 287.203125 379.007812 287.027344 378.890625 286.824219 378.804688 C 286.621094 378.71875 286.40625 378.675781 286.179688 378.675781 C 285.949219 378.675781 285.730469 378.71875 285.53125 378.804688 C 285.328125 378.890625 285.152344 379.007812 285.003906 379.15625 C 284.859375 379.304688 284.742188 379.480469 284.652344 379.679688 C 284.566406 379.882812 284.523438 380.101562 284.523438 380.328125 L 284.523438 384.179688 C 284.523438 384.410156 284.566406 384.625 284.652344 384.828125 C 284.742188 385.03125 284.859375 385.203125 285.003906 385.351562 C 285.152344 385.5 285.328125 385.617188 285.53125 385.707031 C 285.730469 385.792969 285.949219 385.835938 286.179688 385.835938 C 286.40625 385.835938 286.621094 385.792969 286.824219 385.707031 C 287.027344 385.617188 287.203125 385.5 287.347656 385.351562 C 287.496094 385.203125 287.613281 385.03125 287.703125 384.828125 C 287.789062 384.625 287.832031 384.410156 287.832031 384.179688 Z M 286.179688 378.132812 C 286.484375 378.132812 286.769531 378.1875 287.039062 378.304688 C 287.304688 378.421875 287.539062 378.574219 287.734375 378.773438 C 287.933594 378.96875 288.085938 379.203125 288.203125 379.46875 C 288.316406 379.738281 288.375 380.023438 288.375 380.328125 L 288.375 384.179688 C 288.375 384.488281 288.316406 384.773438 288.203125 385.042969 C 288.085938 385.308594 287.933594 385.542969 287.734375 385.738281 C 287.539062 385.933594 287.304688 386.089844 287.039062 386.203125 C 286.769531 386.320312 286.484375 386.378906 286.179688 386.378906 C 285.851562 386.378906 285.542969 386.308594 285.261719 386.171875 C 284.976562 386.035156 284.730469 385.851562 284.523438 385.625 L 284.523438 389.964844 L 283.980469 389.964844 L 283.980469 378.214844 L 284.523438 378.214844 L 284.523438 378.886719 C 284.730469 378.644531 284.976562 378.460938 285.261719 378.328125 C 285.542969 378.199219 285.851562 378.132812 286.179688 378.132812 "/>
<path fill-rule="nonzero" fill="rgb(13.725281%, 12.156677%, 12.548828%)" fill-opacity="1" d="M 294.339844 378.671875 C 294.109375 378.671875 293.894531 378.71875 293.691406 378.804688 C 293.488281 378.890625 293.316406 379.007812 293.167969 379.15625 C 293.019531 379.304688 292.902344 379.480469 292.816406 379.679688 C 292.726562 379.882812 292.683594 380.101562 292.683594 380.328125 L 292.683594 382.214844 C 292.847656 382.148438 293.050781 382.070312 293.289062 381.976562 C 293.53125 381.882812 293.769531 381.792969 294.011719 381.707031 C 294.25 381.617188 294.472656 381.535156 294.675781 381.460938 C 294.878906 381.382812 295.023438 381.328125 295.109375 381.296875 C 295.304688 381.21875 295.503906 381.105469 295.699219 380.953125 C 295.898438 380.800781 295.996094 380.585938 295.996094 380.3125 C 295.996094 380.082031 295.949219 379.871094 295.863281 379.671875 C 295.777344 379.476562 295.660156 379.304688 295.511719 379.15625 C 295.363281 379.007812 295.191406 378.890625 294.988281 378.804688 C 294.785156 378.71875 294.570312 378.671875 294.339844 378.671875 M 295.289062 381.804688 C 295.191406 381.835938 295.027344 381.898438 294.796875 381.992188 C 294.570312 382.085938 294.320312 382.179688 294.054688 382.277344 C 293.785156 382.378906 293.527344 382.476562 293.273438 382.574219 C 293.023438 382.671875 292.824219 382.742188 292.683594 382.789062 L 292.683594 384.179688 C 292.683594 384.410156 292.726562 384.625 292.816406 384.828125 C 292.902344 385.03125 293.019531 385.203125 293.167969 385.351562 C 293.316406 385.5 293.488281 385.617188 293.691406 385.707031 C 293.894531 385.792969 294.109375 385.835938 294.339844 385.835938 C 294.570312 385.835938 294.785156 385.792969 294.988281 385.707031 C 295.191406 385.617188 295.363281 385.5 295.511719 385.351562 C 295.660156 385.203125 295.777344 385.03125 295.863281 384.828125 C 295.949219 384.625 295.996094 384.410156 295.996094 384.179688 L 296.535156 384.179688 C 296.535156 384.488281 296.480469 384.773438 296.363281 385.039062 C 296.25 385.308594 296.09375 385.542969 295.898438 385.738281 C 295.699219 385.933594 295.46875 386.089844 295.199219 386.203125 C 294.933594 386.320312 294.644531 386.378906 294.339844 386.378906 C 294.03125 386.378906 293.746094 386.320312 293.480469 386.203125 C 293.210938 386.089844 292.980469 385.933594 292.78125 385.738281 C 292.585938 385.542969 292.429688 385.308594 292.316406 385.039062 C 292.199219 384.773438 292.144531 384.488281 292.144531 384.179688 L 292.144531 380.328125 C 292.144531 380.023438 292.199219 379.738281 292.316406 379.46875 C 292.429688 379.199219 292.585938 378.96875 292.78125 378.773438 C 292.980469 378.574219 293.210938 378.421875 293.480469 378.304688 C 293.746094 378.191406 294.03125 378.132812 294.339844 378.132812 C 294.644531 378.132812 294.933594 378.191406 295.199219 378.304688 C 295.46875 378.421875 295.699219 378.574219 295.898438 378.773438 C 296.09375 378.96875 296.25 379.199219 296.363281 379.46875 C 296.480469 379.738281 296.535156 380.019531 296.535156 380.3125 L 296.535156 380.328125 C 296.535156 381.007812 296.121094 381.5 295.289062 381.804688 "/>
<path fill-rule="nonzero" fill="rgb(13.725281%, 12.156677%, 12.548828%)" fill-opacity="1" d="M 307.664062 385.835938 C 307.894531 385.835938 308.109375 385.792969 308.3125 385.703125 C 308.515625 385.617188 308.6875 385.5 308.835938 385.351562 C 308.984375 385.203125 309.101562 385.03125 309.1875 384.828125 C 309.277344 384.625 309.320312 384.410156 309.320312 384.179688 L 309.859375 384.179688 C 309.859375 384.488281 309.804688 384.773438 309.6875 385.039062 C 309.574219 385.308594 309.417969 385.542969 309.222656 385.738281 C 309.023438 385.933594 308.792969 386.089844 308.523438 386.203125 C 308.257812 386.320312 307.972656 386.378906 307.664062 386.378906 C 307.359375 386.378906 307.070312 386.320312 306.804688 386.203125 C 306.535156 386.089844 306.304688 385.933594 306.105469 385.738281 C 305.910156 385.542969 305.753906 385.308594 305.640625 385.039062 C 305.527344 384.773438 305.46875 384.488281 305.46875 384.179688 L 305.46875 380.328125 C 305.46875 380.023438 305.527344 379.738281 305.640625 379.46875 C 305.753906 379.199219 305.910156 378.96875 306.105469 378.773438 C 306.304688 378.574219 306.535156 378.417969 306.804688 378.304688 C 307.070312 378.191406 307.359375 378.132812 307.664062 378.132812 C 307.972656 378.132812 308.257812 378.191406 308.523438 378.304688 C 308.792969 378.417969 309.023438 378.574219 309.222656 378.773438 C 309.417969 378.96875 309.574219 379.199219 309.6875 379.46875 C 309.804688 379.738281 309.859375 380.023438 309.859375 380.328125 L 309.320312 380.328125 C 309.320312 380.101562 309.277344 379.882812 309.1875 379.679688 C 309.101562 379.480469 308.984375 379.304688 308.835938 379.15625 C 308.6875 379.007812 308.515625 378.890625 308.3125 378.804688 C 308.109375 378.71875 307.894531 378.671875 307.664062 378.671875 C 307.4375 378.671875 307.21875 378.71875 307.019531 378.804688 C 306.8125 378.890625 306.640625 379.007812 306.492188 379.15625 C 306.347656 379.304688 306.226562 379.480469 306.140625 379.679688 C 306.054688 379.882812 306.007812 380.101562 306.007812 380.328125 L 306.007812 384.179688 C 306.007812 384.410156 306.054688 384.625 306.140625 384.828125 C 306.226562 385.03125 306.347656 385.203125 306.492188 385.351562 C 306.640625 385.5 306.8125 385.617188 307.019531 385.703125 C 307.21875 385.792969 307.4375 385.835938 307.664062 385.835938 "/>
<path fill-rule="nonzero" fill="rgb(13.725281%, 12.156677%, 12.548828%)" fill-opacity="1" d="M 315.828125 378.671875 C 315.597656 378.671875 315.382812 378.71875 315.179688 378.804688 C 314.976562 378.890625 314.800781 379.007812 314.65625 379.15625 C 314.507812 379.304688 314.390625 379.480469 314.304688 379.679688 C 314.214844 379.882812 314.171875 380.101562 314.171875 380.328125 L 314.171875 384.179688 C 314.171875 384.410156 314.214844 384.625 314.304688 384.828125 C 314.390625 385.03125 314.507812 385.203125 314.65625 385.351562 C 314.800781 385.5 314.976562 385.617188 315.179688 385.707031 C 315.382812 385.792969 315.597656 385.835938 315.828125 385.835938 C 316.054688 385.835938 316.273438 385.792969 316.472656 385.707031 C 316.675781 385.617188 316.851562 385.5 317 385.351562 C 317.144531 385.203125 317.261719 385.03125 317.351562 384.828125 C 317.4375 384.625 317.480469 384.410156 317.480469 384.179688 L 317.480469 380.328125 C 317.480469 380.101562 317.4375 379.882812 317.351562 379.679688 C 317.261719 379.480469 317.144531 379.304688 317 379.15625 C 316.851562 379.007812 316.675781 378.890625 316.472656 378.804688 C 316.273438 378.71875 316.054688 378.671875 315.828125 378.671875 M 315.828125 386.378906 C 315.519531 386.378906 315.234375 386.320312 314.964844 386.203125 C 314.699219 386.089844 314.46875 385.933594 314.269531 385.738281 C 314.074219 385.542969 313.917969 385.308594 313.800781 385.039062 C 313.6875 384.773438 313.632812 384.488281 313.632812 384.179688 L 313.632812 380.328125 C 313.632812 380.023438 313.6875 379.738281 313.800781 379.46875 C 313.917969 379.199219 314.074219 378.96875 314.269531 378.773438 C 314.46875 378.574219 314.699219 378.421875 314.964844 378.304688 C 315.234375 378.191406 315.519531 378.132812 315.828125 378.132812 C 316.132812 378.132812 316.417969 378.191406 316.6875 378.304688 C 316.953125 378.421875 317.1875 378.574219 317.382812 378.773438 C 317.582031 378.96875 317.734375 379.199219 317.851562 379.46875 C 317.964844 379.738281 318.023438 380.023438 318.023438 380.328125 L 318.023438 384.179688 C 318.023438 384.488281 317.964844 384.773438 317.851562 385.039062 C 317.734375 385.308594 317.582031 385.542969 317.382812 385.738281 C 317.1875 385.933594 316.953125 386.089844 316.6875 386.203125 C 316.417969 386.320312 316.132812 386.378906 315.828125 386.378906 "/>
<path fill-rule="nonzero" fill="rgb(13.725281%, 12.156677%, 12.548828%)" fill-opacity="1" d="M 327.839844 378.132812 C 328.148438 378.132812 328.433594 378.191406 328.699219 378.304688 C 328.96875 378.421875 329.199219 378.574219 329.398438 378.773438 C 329.59375 378.96875 329.75 379.199219 329.863281 379.46875 C 329.980469 379.738281 330.035156 380.023438 330.035156 380.328125 L 330.035156 386.296875 L 329.496094 386.296875 L 329.496094 380.328125 C 329.496094 380.101562 329.453125 379.882812 329.363281 379.679688 C 329.277344 379.480469 329.160156 379.304688 329.011719 379.15625 C 328.863281 379.007812 328.691406 378.890625 328.488281 378.804688 C 328.285156 378.71875 328.070312 378.671875 327.839844 378.671875 C 327.609375 378.671875 327.398438 378.71875 327.199219 378.804688 C 327.003906 378.890625 326.828125 379.007812 326.675781 379.15625 C 326.523438 379.304688 326.402344 379.480469 326.316406 379.679688 C 326.230469 379.882812 326.183594 380.101562 326.183594 380.328125 L 326.183594 386.296875 L 325.644531 386.296875 L 325.644531 380.328125 C 325.644531 380.101562 325.601562 379.882812 325.511719 379.679688 C 325.425781 379.480469 325.308594 379.304688 325.160156 379.15625 C 325.011719 379.007812 324.835938 378.890625 324.636719 378.804688 C 324.433594 378.71875 324.21875 378.671875 323.988281 378.671875 C 323.757812 378.671875 323.542969 378.71875 323.339844 378.804688 C 323.136719 378.890625 322.964844 379.007812 322.816406 379.15625 C 322.667969 379.304688 322.550781 379.480469 322.464844 379.679688 C 322.375 379.882812 322.332031 380.101562 322.332031 380.328125 L 322.332031 386.296875 L 321.792969 386.296875 L 321.792969 378.214844 L 322.332031 378.214844 L 322.332031 378.886719 C 322.539062 378.648438 322.785156 378.460938 323.070312 378.328125 C 323.355469 378.199219 323.660156 378.132812 323.988281 378.132812 C 324.402344 378.132812 324.78125 378.234375 325.128906 378.445312 C 325.472656 378.652344 325.738281 378.925781 325.921875 379.265625 C 326.109375 378.925781 326.371094 378.652344 326.710938 378.445312 C 327.046875 378.234375 327.425781 378.132812 327.839844 378.132812 "/>
<path fill-rule="nonzero" fill="rgb(13.725281%, 12.156677%, 12.548828%)" fill-opacity="1" d="M 336 378.671875 C 335.773438 378.671875 335.558594 378.71875 335.355469 378.804688 C 335.152344 378.890625 334.976562 379.007812 334.832031 379.15625 C 334.683594 379.304688 334.566406 379.480469 334.480469 379.679688 C 334.390625 379.882812 334.347656 380.101562 334.347656 380.328125 L 334.347656 382.214844 C 334.511719 382.148438 334.710938 382.070312 334.953125 381.976562 C 335.191406 381.882812 335.433594 381.792969 335.675781 381.707031 C 335.914062 381.617188 336.136719 381.535156 336.339844 381.460938 C 336.539062 381.382812 336.683594 381.328125 336.773438 381.296875 C 336.96875 381.21875 337.167969 381.105469 337.363281 380.953125 C 337.558594 380.800781 337.65625 380.585938 337.65625 380.3125 C 337.65625 380.082031 337.613281 379.871094 337.527344 379.671875 C 337.4375 379.476562 337.320312 379.304688 337.175781 379.15625 C 337.027344 379.007812 336.851562 378.890625 336.648438 378.804688 C 336.449219 378.71875 336.230469 378.671875 336 378.671875 M 336.953125 381.804688 C 336.855469 381.835938 336.691406 381.898438 336.460938 381.992188 C 336.230469 382.085938 335.984375 382.179688 335.714844 382.277344 C 335.449219 382.378906 335.1875 382.476562 334.9375 382.574219 C 334.683594 382.671875 334.488281 382.742188 334.347656 382.789062 L 334.347656 384.179688 C 334.347656 384.410156 334.390625 384.625 334.480469 384.828125 C 334.566406 385.03125 334.683594 385.203125 334.832031 385.351562 C 334.976562 385.5 335.152344 385.617188 335.355469 385.707031 C 335.558594 385.792969 335.773438 385.835938 336 385.835938 C 336.230469 385.835938 336.449219 385.792969 336.648438 385.707031 C 336.851562 385.617188 337.027344 385.5 337.175781 385.351562 C 337.320312 385.203125 337.4375 385.03125 337.527344 384.828125 C 337.613281 384.625 337.65625 384.410156 337.65625 384.179688 L 338.199219 384.179688 C 338.199219 384.488281 338.140625 384.773438 338.027344 385.039062 C 337.910156 385.308594 337.753906 385.542969 337.558594 385.738281 C 337.363281 385.933594 337.128906 386.089844 336.863281 386.203125 C 336.59375 386.320312 336.308594 386.378906 336 386.378906 C 335.695312 386.378906 335.410156 386.320312 335.140625 386.203125 C 334.875 386.089844 334.640625 385.933594 334.445312 385.738281 C 334.246094 385.542969 334.09375 385.308594 333.976562 385.039062 C 333.863281 384.773438 333.804688 384.488281 333.804688 384.179688 L 333.804688 380.328125 C 333.804688 380.023438 333.863281 379.738281 333.976562 379.46875 C 334.09375 379.199219 334.246094 378.96875 334.445312 378.773438 C 334.640625 378.574219 334.875 378.421875 335.140625 378.304688 C 335.410156 378.191406 335.695312 378.132812 336 378.132812 C 336.308594 378.132812 336.59375 378.191406 336.863281 378.304688 C 337.128906 378.421875 337.363281 378.574219 337.558594 378.773438 C 337.753906 378.96875 337.910156 379.199219 338.027344 379.46875 C 338.140625 379.738281 338.199219 380.019531 338.199219 380.3125 L 338.199219 380.328125 C 338.199219 381.007812 337.78125 381.5 336.953125 381.804688 "/>
<path fill-rule="nonzero" fill="rgb(13.725281%, 12.156677%, 12.548828%)" fill-opacity="1" d="M 344.933594 378.132812 L 344.933594 378.671875 L 344.296875 378.671875 C 344.066406 378.671875 343.855469 378.71875 343.65625 378.804688 C 343.460938 378.890625 343.285156 379.007812 343.132812 379.15625 C 342.980469 379.304688 342.859375 379.480469 342.773438 379.679688 C 342.683594 379.882812 342.640625 380.101562 342.640625 380.328125 L 342.640625 386.296875 L 342.101562 386.296875 L 342.101562 378.753906 L 341.558594 378.753906 L 341.558594 378.214844 L 342.640625 378.214844 L 342.640625 378.886719 C 343.054688 378.40625 343.589844 378.152344 344.246094 378.132812 Z M 344.933594 378.132812 "/>
<path fill-rule="nonzero" fill="rgb(13.725281%, 12.156677%, 12.548828%)" fill-opacity="1" d="M 350.738281 385.835938 C 350.964844 385.835938 351.179688 385.792969 351.382812 385.703125 C 351.585938 385.617188 351.761719 385.5 351.910156 385.351562 C 352.054688 385.203125 352.171875 385.03125 352.261719 384.828125 C 352.347656 384.625 352.390625 384.410156 352.390625 384.179688 L 352.933594 384.179688 C 352.933594 384.488281 352.875 384.773438 352.761719 385.039062 C 352.648438 385.308594 352.492188 385.542969 352.292969 385.738281 C 352.097656 385.933594 351.867188 386.089844 351.597656 386.203125 C 351.332031 386.320312 351.042969 386.378906 350.738281 386.378906 C 350.429688 386.378906 350.144531 386.320312 349.875 386.203125 C 349.609375 386.089844 349.375 385.933594 349.179688 385.738281 C 348.984375 385.542969 348.828125 385.308594 348.714844 385.039062 C 348.597656 384.773438 348.539062 384.488281 348.539062 384.179688 L 348.539062 380.328125 C 348.539062 380.023438 348.597656 379.738281 348.714844 379.46875 C 348.828125 379.199219 348.984375 378.96875 349.179688 378.773438 C 349.375 378.574219 349.609375 378.417969 349.875 378.304688 C 350.144531 378.191406 350.429688 378.132812 350.738281 378.132812 C 351.042969 378.132812 351.332031 378.191406 351.597656 378.304688 C 351.867188 378.417969 352.097656 378.574219 352.292969 378.773438 C 352.492188 378.96875 352.648438 379.199219 352.761719 379.46875 C 352.875 379.738281 352.933594 380.023438 352.933594 380.328125 L 352.390625 380.328125 C 352.390625 380.101562 352.347656 379.882812 352.261719 379.679688 C 352.171875 379.480469 352.054688 379.304688 351.910156 379.15625 C 351.761719 379.007812 351.585938 378.890625 351.382812 378.804688 C 351.179688 378.71875 350.964844 378.671875 350.738281 378.671875 C 350.507812 378.671875 350.292969 378.71875 350.089844 378.804688 C 349.886719 378.890625 349.714844 379.007812 349.5625 379.15625 C 349.417969 379.304688 349.300781 379.480469 349.210938 379.679688 C 349.125 379.882812 349.082031 380.101562 349.082031 380.328125 L 349.082031 384.179688 C 349.082031 384.410156 349.125 384.625 349.210938 384.828125 C 349.300781 385.03125 349.417969 385.203125 349.5625 385.351562 C 349.714844 385.5 349.886719 385.617188 350.089844 385.703125 C 350.292969 385.792969 350.507812 385.835938 350.738281 385.835938 "/>
<path fill-rule="nonzero" fill="rgb(13.725281%, 12.156677%, 12.548828%)" fill-opacity="1" d="M 357.390625 376.214844 C 357.269531 376.214844 357.171875 376.175781 357.097656 376.101562 C 357.019531 376.023438 356.980469 375.925781 356.980469 375.804688 C 356.980469 375.683594 357.019531 375.585938 357.097656 375.511719 C 357.171875 375.433594 357.269531 375.394531 357.390625 375.394531 C 357.5 375.394531 357.597656 375.433594 357.675781 375.511719 C 357.757812 375.585938 357.800781 375.683594 357.800781 375.804688 C 357.800781 375.925781 357.757812 376.023438 357.675781 376.101562 C 357.597656 376.175781 357.5 376.214844 357.390625 376.214844 M 357.261719 378.082031 L 357.800781 378.082031 L 357.800781 386.179688 L 357.261719 386.179688 L 357.261719 378.640625 L 356.71875 378.640625 L 356.71875 378.082031 Z M 357.261719 378.082031 "/>
<path fill-rule="nonzero" fill="rgb(13.725281%, 12.156677%, 12.548828%)" fill-opacity="1" d="M 365.421875 382.246094 L 365.421875 381.835938 C 365.257812 381.902344 365.054688 381.980469 364.816406 382.066406 C 364.574219 382.152344 364.335938 382.246094 364.09375 382.335938 C 363.855469 382.429688 363.636719 382.515625 363.4375 382.589844 C 363.242188 382.667969 363.101562 382.722656 363.011719 382.753906 C 362.804688 382.832031 362.601562 382.945312 362.40625 383.097656 C 362.210938 383.253906 362.109375 383.460938 362.109375 383.722656 L 362.109375 384.179688 C 362.109375 384.410156 362.15625 384.625 362.242188 384.828125 C 362.328125 385.03125 362.445312 385.203125 362.59375 385.351562 C 362.742188 385.5 362.917969 385.617188 363.117188 385.707031 C 363.320312 385.792969 363.535156 385.835938 363.765625 385.835938 C 363.996094 385.835938 364.210938 385.792969 364.414062 385.707031 C 364.613281 385.617188 364.789062 385.5 364.9375 385.351562 C 365.085938 385.203125 365.203125 385.03125 365.289062 384.828125 C 365.378906 384.625 365.421875 384.410156 365.421875 384.179688 Z M 363.898438 378.132812 C 364.203125 378.132812 364.480469 378.1875 364.734375 378.304688 C 364.984375 378.421875 365.199219 378.574219 365.382812 378.773438 C 365.5625 378.96875 365.703125 379.199219 365.808594 379.46875 C 365.910156 379.738281 365.960938 380.023438 365.960938 380.328125 L 365.960938 386.296875 L 365.421875 386.296875 L 365.421875 385.625 C 365.214844 385.851562 364.96875 386.035156 364.683594 386.171875 C 364.402344 386.308594 364.09375 386.378906 363.765625 386.378906 C 363.460938 386.378906 363.175781 386.320312 362.90625 386.203125 C 362.636719 386.089844 362.40625 385.933594 362.210938 385.738281 C 362.011719 385.542969 361.859375 385.308594 361.742188 385.039062 C 361.628906 384.773438 361.570312 384.488281 361.570312 384.179688 L 361.570312 383.722656 C 361.570312 383.042969 361.984375 382.554688 362.816406 382.246094 C 362.914062 382.203125 363.078125 382.136719 363.316406 382.050781 C 363.550781 381.960938 363.800781 381.867188 364.070312 381.765625 C 364.335938 381.660156 364.597656 381.558594 364.847656 381.46875 C 365.101562 381.375 365.289062 381.300781 365.421875 381.246094 L 365.421875 380.328125 C 365.421875 379.871094 365.28125 379.480469 365.003906 379.15625 C 364.726562 378.835938 364.355469 378.671875 363.898438 378.671875 C 363.667969 378.671875 363.453125 378.71875 363.257812 378.804688 C 363.0625 378.890625 362.886719 379.007812 362.734375 379.15625 C 362.582031 379.304688 362.460938 379.480469 362.371094 379.679688 C 362.285156 379.882812 362.242188 380.101562 362.242188 380.328125 L 361.699219 380.328125 C 361.699219 380.023438 361.757812 379.738281 361.875 379.46875 C 361.988281 379.199219 362.144531 378.96875 362.339844 378.773438 C 362.535156 378.574219 362.769531 378.421875 363.039062 378.304688 C 363.304688 378.1875 363.589844 378.132812 363.898438 378.132812 "/>
<path fill-rule="nonzero" fill="rgb(13.725281%, 12.156677%, 12.548828%)" fill-opacity="1" d="M 369.730469 374.542969 L 370.273438 374.542969 L 370.273438 386.296875 L 369.730469 386.296875 Z M 369.730469 374.542969 "/>
<path fill-rule="nonzero" fill="rgb(13.725281%, 12.156677%, 12.548828%)" fill-opacity="1" d="M 381.566406 385.835938 C 381.792969 385.835938 382.011719 385.792969 382.214844 385.703125 C 382.414062 385.617188 382.589844 385.5 382.738281 385.351562 C 382.886719 385.203125 383 385.03125 383.089844 384.828125 C 383.175781 384.625 383.21875 384.410156 383.21875 384.179688 L 383.21875 380.328125 C 383.21875 380.101562 383.175781 379.882812 383.089844 379.679688 C 383 379.480469 382.886719 379.304688 382.738281 379.15625 C 382.589844 379.007812 382.414062 378.890625 382.214844 378.804688 C 382.011719 378.71875 381.792969 378.671875 381.566406 378.671875 C 381.335938 378.671875 381.121094 378.71875 380.917969 378.804688 C 380.714844 378.890625 380.542969 379.007812 380.394531 379.15625 C 380.246094 379.304688 380.128906 379.480469 380.042969 379.679688 C 379.953125 379.882812 379.910156 380.101562 379.910156 380.328125 L 379.910156 384.179688 C 379.910156 384.410156 379.953125 384.625 380.042969 384.828125 C 380.128906 385.03125 380.246094 385.203125 380.394531 385.351562 C 380.542969 385.5 380.714844 385.617188 380.917969 385.703125 C 381.121094 385.792969 381.335938 385.835938 381.566406 385.835938 M 383.761719 374.542969 L 383.761719 386.296875 L 383.21875 386.296875 L 383.21875 385.625 C 383.011719 385.851562 382.765625 386.035156 382.484375 386.171875 C 382.199219 386.308594 381.894531 386.378906 381.566406 386.378906 C 381.257812 386.378906 380.972656 386.320312 380.707031 386.203125 C 380.4375 386.089844 380.207031 385.933594 380.007812 385.738281 C 379.8125 385.542969 379.65625 385.308594 379.542969 385.039062 C 379.425781 384.773438 379.371094 384.488281 379.371094 384.179688 L 379.371094 380.328125 C 379.371094 380.023438 379.425781 379.738281 379.542969 379.46875 C 379.65625 379.199219 379.8125 378.96875 380.007812 378.773438 C 380.207031 378.574219 380.4375 378.417969 380.707031 378.304688 C 380.972656 378.191406 381.257812 378.132812 381.566406 378.132812 C 381.894531 378.132812 382.199219 378.199219 382.484375 378.328125 C 382.765625 378.460938 383.011719 378.648438 383.21875 378.886719 L 383.21875 374.542969 Z M 383.761719 374.542969 "/>
<path fill-rule="nonzero" fill="rgb(13.725281%, 12.156677%, 12.548828%)" fill-opacity="1" d="M 389.808594 378.671875 C 389.582031 378.671875 389.363281 378.71875 389.164062 378.804688 C 388.960938 378.890625 388.785156 379.007812 388.636719 379.15625 C 388.488281 379.304688 388.375 379.480469 388.285156 379.679688 C 388.199219 379.882812 388.15625 380.101562 388.15625 380.328125 L 388.15625 382.214844 C 388.320312 382.148438 388.519531 382.070312 388.761719 381.976562 C 389 381.882812 389.242188 381.792969 389.480469 381.707031 C 389.722656 381.617188 389.945312 381.535156 390.144531 381.460938 C 390.347656 381.382812 390.492188 381.328125 390.578125 381.296875 C 390.777344 381.21875 390.972656 381.105469 391.167969 380.953125 C 391.367188 380.800781 391.464844 380.585938 391.464844 380.3125 C 391.464844 380.082031 391.421875 379.871094 391.332031 379.671875 C 391.246094 379.476562 391.128906 379.304688 390.980469 379.15625 C 390.832031 379.007812 390.660156 378.890625 390.457031 378.804688 C 390.253906 378.71875 390.039062 378.671875 389.808594 378.671875 M 390.761719 381.804688 C 390.664062 381.835938 390.496094 381.898438 390.269531 381.992188 C 390.039062 382.085938 389.789062 382.179688 389.523438 382.277344 C 389.253906 382.378906 388.996094 382.476562 388.746094 382.574219 C 388.492188 382.671875 388.296875 382.742188 388.15625 382.789062 L 388.15625 384.179688 C 388.15625 384.410156 388.199219 384.625 388.285156 384.828125 C 388.375 385.03125 388.488281 385.203125 388.636719 385.351562 C 388.785156 385.5 388.960938 385.617188 389.164062 385.707031 C 389.363281 385.792969 389.582031 385.835938 389.808594 385.835938 C 390.039062 385.835938 390.253906 385.792969 390.457031 385.707031 C 390.660156 385.617188 390.832031 385.5 390.980469 385.351562 C 391.128906 385.203125 391.246094 385.03125 391.332031 384.828125 C 391.421875 384.625 391.464844 384.410156 391.464844 384.179688 L 392.007812 384.179688 C 392.007812 384.488281 391.949219 384.773438 391.832031 385.039062 C 391.71875 385.308594 391.5625 385.542969 391.367188 385.738281 C 391.167969 385.933594 390.9375 386.089844 390.667969 386.203125 C 390.402344 386.320312 390.113281 386.378906 389.808594 386.378906 C 389.503906 386.378906 389.214844 386.320312 388.949219 386.203125 C 388.679688 386.089844 388.449219 385.933594 388.253906 385.738281 C 388.054688 385.542969 387.898438 385.308594 387.785156 385.039062 C 387.671875 384.773438 387.613281 384.488281 387.613281 384.179688 L 387.613281 380.328125 C 387.613281 380.023438 387.671875 379.738281 387.785156 379.46875 C 387.898438 379.199219 388.054688 378.96875 388.253906 378.773438 C 388.449219 378.574219 388.679688 378.421875 388.949219 378.304688 C 389.214844 378.191406 389.503906 378.132812 389.808594 378.132812 C 390.113281 378.132812 390.402344 378.191406 390.667969 378.304688 C 390.9375 378.421875 391.167969 378.574219 391.367188 378.773438 C 391.5625 378.96875 391.71875 379.199219 391.832031 379.46875 C 391.949219 379.738281 392.007812 380.019531 392.007812 380.3125 L 392.007812 380.328125 C 392.007812 381.007812 391.589844 381.5 390.761719 381.804688 "/>
<path fill-rule="nonzero" fill="rgb(13.725281%, 12.156677%, 12.548828%)" fill-opacity="1" d="M 426.378906 382.246094 L 426.378906 381.835938 C 426.214844 381.902344 426.011719 381.980469 425.773438 382.066406 C 425.53125 382.152344 425.292969 382.246094 425.050781 382.335938 C 424.8125 382.429688 424.59375 382.515625 424.398438 382.589844 C 424.199219 382.667969 424.058594 382.722656 423.972656 382.753906 C 423.761719 382.832031 423.5625 382.945312 423.363281 383.097656 C 423.167969 383.253906 423.070312 383.460938 423.070312 383.722656 L 423.070312 384.179688 C 423.070312 384.410156 423.113281 384.625 423.199219 384.828125 C 423.285156 385.03125 423.40625 385.203125 423.550781 385.351562 C 423.699219 385.5 423.875 385.617188 424.078125 385.707031 C 424.277344 385.792969 424.492188 385.835938 424.726562 385.835938 C 424.953125 385.835938 425.167969 385.792969 425.371094 385.707031 C 425.574219 385.617188 425.75 385.5 425.894531 385.351562 C 426.042969 385.203125 426.160156 385.03125 426.246094 384.828125 C 426.335938 384.625 426.378906 384.410156 426.378906 384.179688 Z M 424.855469 378.132812 C 425.160156 378.132812 425.441406 378.1875 425.691406 378.304688 C 425.941406 378.421875 426.15625 378.574219 426.339844 378.773438 C 426.519531 378.96875 426.660156 379.199219 426.765625 379.46875 C 426.867188 379.738281 426.921875 380.023438 426.921875 380.328125 L 426.921875 386.296875 L 426.378906 386.296875 L 426.378906 385.625 C 426.171875 385.851562 425.925781 386.035156 425.644531 386.171875 C 425.359375 386.308594 425.050781 386.378906 424.726562 386.378906 C 424.417969 386.378906 424.132812 386.320312 423.863281 386.203125 C 423.597656 386.089844 423.363281 385.933594 423.167969 385.738281 C 422.972656 385.542969 422.816406 385.308594 422.699219 385.039062 C 422.585938 384.773438 422.527344 384.488281 422.527344 384.179688 L 422.527344 383.722656 C 422.527344 383.042969 422.945312 382.554688 423.773438 382.246094 C 423.871094 382.203125 424.039062 382.136719 424.273438 382.050781 C 424.507812 381.960938 424.757812 381.867188 425.027344 381.765625 C 425.296875 381.660156 425.554688 381.558594 425.804688 381.46875 C 426.058594 381.375 426.246094 381.300781 426.378906 381.246094 L 426.378906 380.328125 C 426.378906 379.871094 426.238281 379.480469 425.960938 379.15625 C 425.683594 378.835938 425.316406 378.671875 424.855469 378.671875 C 424.625 378.671875 424.414062 378.71875 424.214844 378.804688 C 424.019531 378.890625 423.84375 379.007812 423.691406 379.15625 C 423.539062 379.304688 423.417969 379.480469 423.332031 379.679688 C 423.242188 379.882812 423.199219 380.101562 423.199219 380.328125 L 422.660156 380.328125 C 422.660156 380.023438 422.714844 379.738281 422.832031 379.46875 C 422.945312 379.199219 423.101562 378.96875 423.296875 378.773438 C 423.496094 378.574219 423.726562 378.421875 423.996094 378.304688 C 424.261719 378.1875 424.550781 378.132812 424.855469 378.132812 "/>
<path fill-rule="nonzero" fill="rgb(13.725281%, 12.156677%, 12.548828%)" fill-opacity="1" d="M 430.691406 374.542969 L 431.230469 374.542969 L 431.230469 386.296875 L 430.691406 386.296875 Z M 430.691406 374.542969 "/>
<path fill-rule="nonzero" fill="rgb(13.725281%, 12.156677%, 12.548828%)" fill-opacity="1" d="M 435.789062 382.246094 L 435.789062 384.179688 C 435.789062 384.410156 435.824219 384.625 435.902344 384.828125 C 435.976562 385.03125 436.082031 385.203125 436.210938 385.351562 C 436.34375 385.5 436.496094 385.617188 436.671875 385.707031 C 436.847656 385.792969 437.03125 385.835938 437.230469 385.835938 L 437.230469 386.378906 C 436.957031 386.378906 436.699219 386.320312 436.457031 386.203125 C 436.21875 386.089844 436.007812 385.933594 435.828125 385.738281 C 435.648438 385.542969 435.503906 385.308594 435.402344 385.039062 C 435.296875 384.773438 435.246094 384.488281 435.246094 384.179688 L 435.246094 375.921875 L 435.789062 375.921875 L 435.789062 378.214844 L 437.554688 378.214844 L 437.554688 378.753906 L 435.789062 378.753906 Z M 435.789062 382.246094 "/>
<path fill-rule="nonzero" fill="rgb(13.725281%, 12.156677%, 12.548828%)" fill-opacity="1" d="M 444.851562 382.246094 L 444.851562 381.835938 C 444.6875 381.902344 444.484375 381.980469 444.246094 382.066406 C 444.003906 382.152344 443.761719 382.246094 443.523438 382.335938 C 443.28125 382.429688 443.0625 382.515625 442.867188 382.589844 C 442.671875 382.667969 442.527344 382.722656 442.441406 382.753906 C 442.234375 382.832031 442.03125 382.945312 441.835938 383.097656 C 441.636719 383.253906 441.539062 383.460938 441.539062 383.722656 L 441.539062 384.179688 C 441.539062 384.410156 441.582031 384.625 441.671875 384.828125 C 441.757812 385.03125 441.875 385.203125 442.023438 385.351562 C 442.167969 385.5 442.34375 385.617188 442.546875 385.707031 C 442.75 385.792969 442.964844 385.835938 443.195312 385.835938 C 443.425781 385.835938 443.640625 385.792969 443.839844 385.707031 C 444.042969 385.617188 444.21875 385.5 444.367188 385.351562 C 444.515625 385.203125 444.632812 385.03125 444.71875 384.828125 C 444.804688 384.625 444.851562 384.410156 444.851562 384.179688 Z M 443.328125 378.132812 C 443.632812 378.132812 443.910156 378.1875 444.164062 378.304688 C 444.414062 378.421875 444.628906 378.574219 444.808594 378.773438 C 444.992188 378.96875 445.132812 379.199219 445.234375 379.46875 C 445.339844 379.738281 445.390625 380.023438 445.390625 380.328125 L 445.390625 386.296875 L 444.851562 386.296875 L 444.851562 385.625 C 444.644531 385.851562 444.398438 386.035156 444.113281 386.171875 C 443.828125 386.308594 443.523438 386.378906 443.195312 386.378906 C 442.890625 386.378906 442.601562 386.320312 442.335938 386.203125 C 442.066406 386.089844 441.835938 385.933594 441.636719 385.738281 C 441.441406 385.542969 441.285156 385.308594 441.171875 385.039062 C 441.054688 384.773438 441 384.488281 441 384.179688 L 441 383.722656 C 441 383.042969 441.414062 382.554688 442.246094 382.246094 C 442.34375 382.203125 442.507812 382.136719 442.746094 382.050781 C 442.980469 381.960938 443.230469 381.867188 443.5 381.765625 C 443.765625 381.660156 444.027344 381.558594 444.277344 381.46875 C 444.527344 381.375 444.71875 381.300781 444.851562 381.246094 L 444.851562 380.328125 C 444.851562 379.871094 444.710938 379.480469 444.433594 379.15625 C 444.15625 378.835938 443.785156 378.671875 443.328125 378.671875 C 443.097656 378.671875 442.882812 378.71875 442.6875 378.804688 C 442.492188 378.890625 442.316406 379.007812 442.164062 379.15625 C 442.007812 379.304688 441.890625 379.480469 441.800781 379.679688 C 441.714844 379.882812 441.671875 380.101562 441.671875 380.328125 L 441.128906 380.328125 C 441.128906 380.023438 441.1875 379.738281 441.300781 379.46875 C 441.417969 379.199219 441.574219 378.96875 441.769531 378.773438 C 441.964844 378.574219 442.199219 378.421875 442.464844 378.304688 C 442.734375 378.1875 443.019531 378.132812 443.328125 378.132812 "/>
<path fill-rule="nonzero" fill="rgb(13.725281%, 12.156677%, 12.548828%)" fill-opacity="1" d="M 458.175781 380.328125 C 458.175781 380.101562 458.132812 379.882812 458.042969 379.679688 C 457.957031 379.480469 457.839844 379.304688 457.691406 379.15625 C 457.542969 379.007812 457.371094 378.890625 457.167969 378.804688 C 456.964844 378.71875 456.75 378.675781 456.519531 378.675781 C 456.289062 378.675781 456.074219 378.71875 455.871094 378.804688 C 455.671875 378.890625 455.496094 379.007812 455.347656 379.15625 C 455.199219 379.304688 455.082031 379.480469 454.996094 379.679688 C 454.910156 379.882812 454.867188 380.101562 454.867188 380.328125 L 454.867188 384.179688 C 454.867188 384.410156 454.910156 384.625 454.996094 384.828125 C 455.082031 385.03125 455.199219 385.203125 455.347656 385.351562 C 455.496094 385.5 455.671875 385.617188 455.871094 385.707031 C 456.074219 385.792969 456.289062 385.835938 456.519531 385.835938 C 456.75 385.835938 456.964844 385.792969 457.167969 385.707031 C 457.371094 385.617188 457.542969 385.5 457.691406 385.351562 C 457.839844 385.203125 457.957031 385.03125 458.042969 384.828125 C 458.132812 384.625 458.175781 384.410156 458.175781 384.179688 Z M 456.519531 378.132812 C 456.824219 378.132812 457.113281 378.1875 457.382812 378.304688 C 457.648438 378.421875 457.878906 378.574219 458.078125 378.773438 C 458.273438 378.96875 458.429688 379.203125 458.542969 379.46875 C 458.660156 379.738281 458.714844 380.023438 458.714844 380.328125 L 458.714844 384.179688 C 458.714844 384.488281 458.660156 384.773438 458.542969 385.042969 C 458.429688 385.308594 458.273438 385.542969 458.078125 385.738281 C 457.878906 385.933594 457.648438 386.089844 457.382812 386.203125 C 457.113281 386.320312 456.824219 386.378906 456.519531 386.378906 C 456.195312 386.378906 455.886719 386.308594 455.601562 386.171875 C 455.320312 386.035156 455.074219 385.851562 454.867188 385.625 L 454.867188 389.964844 L 454.324219 389.964844 L 454.324219 378.214844 L 454.867188 378.214844 L 454.867188 378.886719 C 455.074219 378.644531 455.320312 378.460938 455.601562 378.328125 C 455.886719 378.199219 456.195312 378.132812 456.519531 378.132812 "/>
<path fill-rule="nonzero" fill="rgb(13.725281%, 12.156677%, 12.548828%)" fill-opacity="1" d="M 464.683594 378.671875 C 464.453125 378.671875 464.238281 378.71875 464.035156 378.804688 C 463.832031 378.890625 463.65625 379.007812 463.511719 379.15625 C 463.363281 379.304688 463.246094 379.480469 463.160156 379.679688 C 463.070312 379.882812 463.027344 380.101562 463.027344 380.328125 L 463.027344 382.214844 C 463.191406 382.148438 463.394531 382.070312 463.632812 381.976562 C 463.875 381.882812 464.113281 381.792969 464.355469 381.707031 C 464.59375 381.617188 464.816406 381.535156 465.019531 381.460938 C 465.21875 381.382812 465.367188 381.328125 465.453125 381.296875 C 465.648438 381.21875 465.847656 381.105469 466.042969 380.953125 C 466.238281 380.800781 466.335938 380.585938 466.335938 380.3125 C 466.335938 380.082031 466.292969 379.871094 466.207031 379.671875 C 466.117188 379.476562 466 379.304688 465.855469 379.15625 C 465.707031 379.007812 465.53125 378.890625 465.328125 378.804688 C 465.128906 378.71875 464.910156 378.671875 464.683594 378.671875 M 465.632812 381.804688 C 465.535156 381.835938 465.371094 381.898438 465.140625 381.992188 C 464.910156 382.085938 464.664062 382.179688 464.394531 382.277344 C 464.128906 382.378906 463.867188 382.476562 463.617188 382.574219 C 463.367188 382.671875 463.167969 382.742188 463.027344 382.789062 L 463.027344 384.179688 C 463.027344 384.410156 463.070312 384.625 463.160156 384.828125 C 463.246094 385.03125 463.363281 385.203125 463.511719 385.351562 C 463.65625 385.5 463.832031 385.617188 464.035156 385.707031 C 464.238281 385.792969 464.453125 385.835938 464.683594 385.835938 C 464.910156 385.835938 465.128906 385.792969 465.328125 385.707031 C 465.53125 385.617188 465.707031 385.5 465.855469 385.351562 C 466 385.203125 466.117188 385.03125 466.207031 384.828125 C 466.292969 384.625 466.335938 384.410156 466.335938 384.179688 L 466.878906 384.179688 C 466.878906 384.488281 466.820312 384.773438 466.707031 385.039062 C 466.589844 385.308594 466.4375 385.542969 466.238281 385.738281 C 466.042969 385.933594 465.808594 386.089844 465.542969 386.203125 C 465.273438 386.320312 464.988281 386.378906 464.683594 386.378906 C 464.375 386.378906 464.089844 386.320312 463.824219 386.203125 C 463.554688 386.089844 463.324219 385.933594 463.125 385.738281 C 462.929688 385.542969 462.773438 385.308594 462.660156 385.039062 C 462.542969 384.773438 462.488281 384.488281 462.488281 384.179688 L 462.488281 380.328125 C 462.488281 380.023438 462.542969 379.738281 462.660156 379.46875 C 462.773438 379.199219 462.929688 378.96875 463.125 378.773438 C 463.324219 378.574219 463.554688 378.421875 463.824219 378.304688 C 464.089844 378.191406 464.375 378.132812 464.683594 378.132812 C 464.988281 378.132812 465.273438 378.191406 465.542969 378.304688 C 465.808594 378.421875 466.042969 378.574219 466.238281 378.773438 C 466.4375 378.96875 466.589844 379.199219 466.707031 379.46875 C 466.820312 379.738281 466.878906 380.019531 466.878906 380.3125 L 466.878906 380.328125 C 466.878906 381.007812 466.464844 381.5 465.632812 381.804688 "/>
<path fill-rule="nonzero" fill="rgb(13.725281%, 12.156677%, 12.548828%)" fill-opacity="1" d="M 473.617188 378.132812 L 473.617188 378.671875 L 472.976562 378.671875 C 472.746094 378.671875 472.535156 378.71875 472.335938 378.804688 C 472.140625 378.890625 471.964844 379.007812 471.8125 379.15625 C 471.660156 379.304688 471.539062 379.480469 471.449219 379.679688 C 471.363281 379.882812 471.320312 380.101562 471.320312 380.328125 L 471.320312 386.296875 L 470.78125 386.296875 L 470.78125 378.753906 L 470.238281 378.753906 L 470.238281 378.214844 L 471.320312 378.214844 L 471.320312 378.886719 C 471.734375 378.40625 472.269531 378.152344 472.925781 378.132812 Z M 473.617188 378.132812 "/>
<path fill-rule="nonzero" fill="rgb(13.725281%, 12.156677%, 12.548828%)" fill-opacity="1" d="M 479.664062 378.753906 L 477.894531 378.753906 L 477.894531 387.753906 C 477.894531 388.058594 477.839844 388.347656 477.734375 388.613281 C 477.632812 388.882812 477.492188 389.117188 477.308594 389.320312 C 477.128906 389.519531 476.921875 389.679688 476.679688 389.792969 C 476.4375 389.910156 476.183594 389.96875 475.910156 389.96875 L 475.910156 389.425781 C 476.105469 389.425781 476.292969 389.382812 476.464844 389.292969 C 476.640625 389.207031 476.792969 389.089844 476.925781 388.941406 C 477.058594 388.792969 477.160156 388.617188 477.238281 388.417969 C 477.3125 388.214844 477.351562 387.996094 477.351562 387.769531 L 477.351562 376.738281 C 477.351562 376.433594 477.402344 376.148438 477.507812 375.878906 C 477.609375 375.613281 477.753906 375.378906 477.933594 375.183594 C 478.113281 374.984375 478.324219 374.828125 478.5625 374.714844 C 478.804688 374.601562 479.0625 374.542969 479.335938 374.542969 L 479.335938 375.085938 C 479.136719 375.085938 478.953125 375.128906 478.777344 375.214844 C 478.601562 375.304688 478.449219 375.421875 478.316406 375.574219 C 478.1875 375.730469 478.082031 375.902344 478.007812 376.101562 C 477.929688 376.296875 477.894531 376.511719 477.894531 376.738281 L 477.894531 378.214844 L 479.664062 378.214844 Z M 479.664062 378.753906 "/>
<path fill-rule="nonzero" fill="rgb(13.725281%, 12.156677%, 12.548828%)" fill-opacity="1" d="M 484.808594 378.671875 C 484.578125 378.671875 484.363281 378.71875 484.160156 378.804688 C 483.957031 378.890625 483.785156 379.007812 483.636719 379.15625 C 483.488281 379.304688 483.371094 379.480469 483.285156 379.679688 C 483.195312 379.882812 483.152344 380.101562 483.152344 380.328125 L 483.152344 384.179688 C 483.152344 384.410156 483.195312 384.625 483.285156 384.828125 C 483.371094 385.03125 483.488281 385.203125 483.636719 385.351562 C 483.785156 385.5 483.957031 385.617188 484.160156 385.707031 C 484.363281 385.792969 484.578125 385.835938 484.808594 385.835938 C 485.039062 385.835938 485.253906 385.792969 485.453125 385.707031 C 485.660156 385.617188 485.832031 385.5 485.980469 385.351562 C 486.128906 385.203125 486.246094 385.03125 486.332031 384.828125 C 486.417969 384.625 486.464844 384.410156 486.464844 384.179688 L 486.464844 380.328125 C 486.464844 380.101562 486.417969 379.882812 486.332031 379.679688 C 486.246094 379.480469 486.128906 379.304688 485.980469 379.15625 C 485.832031 379.007812 485.660156 378.890625 485.453125 378.804688 C 485.253906 378.71875 485.039062 378.671875 484.808594 378.671875 M 484.808594 386.378906 C 484.503906 386.378906 484.214844 386.320312 483.949219 386.203125 C 483.679688 386.089844 483.449219 385.933594 483.25 385.738281 C 483.054688 385.542969 482.898438 385.308594 482.785156 385.039062 C 482.667969 384.773438 482.613281 384.488281 482.613281 384.179688 L 482.613281 380.328125 C 482.613281 380.023438 482.667969 379.738281 482.785156 379.46875 C 482.898438 379.199219 483.054688 378.96875 483.25 378.773438 C 483.449219 378.574219 483.679688 378.421875 483.949219 378.304688 C 484.214844 378.191406 484.503906 378.132812 484.808594 378.132812 C 485.113281 378.132812 485.402344 378.191406 485.667969 378.304688 C 485.9375 378.421875 486.167969 378.574219 486.367188 378.773438 C 486.5625 378.96875 486.71875 379.199219 486.832031 379.46875 C 486.949219 379.738281 487.003906 380.023438 487.003906 380.328125 L 487.003906 384.179688 C 487.003906 384.488281 486.949219 384.773438 486.832031 385.039062 C 486.71875 385.308594 486.5625 385.542969 486.367188 385.738281 C 486.167969 385.933594 485.9375 386.089844 485.667969 386.203125 C 485.402344 386.320312 485.113281 386.378906 484.808594 386.378906 "/>
<path fill-rule="nonzero" fill="rgb(13.725281%, 12.156677%, 12.548828%)" fill-opacity="1" d="M 496.824219 378.132812 C 497.128906 378.132812 497.414062 378.191406 497.683594 378.304688 C 497.949219 378.421875 498.183594 378.574219 498.378906 378.773438 C 498.578125 378.96875 498.730469 379.199219 498.847656 379.46875 C 498.960938 379.738281 499.019531 380.023438 499.019531 380.328125 L 499.019531 386.296875 L 498.476562 386.296875 L 498.476562 380.328125 C 498.476562 380.101562 498.433594 379.882812 498.34375 379.679688 C 498.257812 379.480469 498.140625 379.304688 497.992188 379.15625 C 497.847656 379.007812 497.671875 378.890625 497.46875 378.804688 C 497.265625 378.71875 497.050781 378.671875 496.824219 378.671875 C 496.59375 378.671875 496.378906 378.71875 496.183594 378.804688 C 495.988281 378.890625 495.8125 379.007812 495.660156 379.15625 C 495.507812 379.304688 495.386719 379.480469 495.296875 379.679688 C 495.210938 379.882812 495.167969 380.101562 495.167969 380.328125 L 495.167969 386.296875 L 494.625 386.296875 L 494.625 380.328125 C 494.625 380.101562 494.582031 379.882812 494.496094 379.679688 C 494.40625 379.480469 494.289062 379.304688 494.140625 379.15625 C 493.996094 379.007812 493.820312 378.890625 493.617188 378.804688 C 493.414062 378.71875 493.199219 378.671875 492.972656 378.671875 C 492.742188 378.671875 492.523438 378.71875 492.324219 378.804688 C 492.121094 378.890625 491.945312 379.007812 491.796875 379.15625 C 491.652344 379.304688 491.53125 379.480469 491.445312 379.679688 C 491.359375 379.882812 491.316406 380.101562 491.316406 380.328125 L 491.316406 386.296875 L 490.773438 386.296875 L 490.773438 378.214844 L 491.316406 378.214844 L 491.316406 378.886719 C 491.523438 378.648438 491.765625 378.460938 492.054688 378.328125 C 492.335938 378.199219 492.640625 378.132812 492.972656 378.132812 C 493.386719 378.132812 493.765625 378.234375 494.109375 378.445312 C 494.453125 378.652344 494.71875 378.925781 494.90625 379.265625 C 495.089844 378.925781 495.351562 378.652344 495.691406 378.445312 C 496.03125 378.234375 496.40625 378.132812 496.824219 378.132812 "/>
<path fill-rule="nonzero" fill="rgb(13.725281%, 12.156677%, 12.548828%)" fill-opacity="1" d="M 506.640625 382.246094 L 506.640625 381.835938 C 506.476562 381.902344 506.273438 381.980469 506.035156 382.066406 C 505.792969 382.152344 505.550781 382.246094 505.3125 382.335938 C 505.070312 382.429688 504.851562 382.515625 504.65625 382.589844 C 504.460938 382.667969 504.316406 382.722656 504.230469 382.753906 C 504.023438 382.832031 503.820312 382.945312 503.625 383.097656 C 503.425781 383.253906 503.328125 383.460938 503.328125 383.722656 L 503.328125 384.179688 C 503.328125 384.410156 503.371094 384.625 503.460938 384.828125 C 503.546875 385.03125 503.664062 385.203125 503.8125 385.351562 C 503.957031 385.5 504.132812 385.617188 504.335938 385.707031 C 504.539062 385.792969 504.753906 385.835938 504.984375 385.835938 C 505.214844 385.835938 505.429688 385.792969 505.628906 385.707031 C 505.832031 385.617188 506.007812 385.5 506.15625 385.351562 C 506.304688 385.203125 506.421875 385.03125 506.507812 384.828125 C 506.59375 384.625 506.640625 384.410156 506.640625 384.179688 Z M 505.117188 378.132812 C 505.421875 378.132812 505.699219 378.1875 505.953125 378.304688 C 506.203125 378.421875 506.417969 378.574219 506.597656 378.773438 C 506.78125 378.96875 506.921875 379.199219 507.023438 379.46875 C 507.128906 379.738281 507.179688 380.023438 507.179688 380.328125 L 507.179688 386.296875 L 506.640625 386.296875 L 506.640625 385.625 C 506.433594 385.851562 506.1875 386.035156 505.902344 386.171875 C 505.617188 386.308594 505.3125 386.378906 504.984375 386.378906 C 504.679688 386.378906 504.390625 386.320312 504.125 386.203125 C 503.855469 386.089844 503.625 385.933594 503.425781 385.738281 C 503.230469 385.542969 503.074219 385.308594 502.960938 385.039062 C 502.84375 384.773438 502.789062 384.488281 502.789062 384.179688 L 502.789062 383.722656 C 502.789062 383.042969 503.203125 382.554688 504.035156 382.246094 C 504.132812 382.203125 504.296875 382.136719 504.535156 382.050781 C 504.769531 381.960938 505.019531 381.867188 505.289062 381.765625 C 505.554688 381.660156 505.816406 381.558594 506.066406 381.46875 C 506.316406 381.375 506.507812 381.300781 506.640625 381.246094 L 506.640625 380.328125 C 506.640625 379.871094 506.5 379.480469 506.222656 379.15625 C 505.945312 378.835938 505.574219 378.671875 505.117188 378.671875 C 504.886719 378.671875 504.671875 378.71875 504.476562 378.804688 C 504.28125 378.890625 504.105469 379.007812 503.953125 379.15625 C 503.796875 379.304688 503.679688 379.480469 503.589844 379.679688 C 503.503906 379.882812 503.460938 380.101562 503.460938 380.328125 L 502.917969 380.328125 C 502.917969 380.023438 502.976562 379.738281 503.089844 379.46875 C 503.207031 379.199219 503.363281 378.96875 503.558594 378.773438 C 503.753906 378.574219 503.988281 378.421875 504.253906 378.304688 C 504.523438 378.1875 504.808594 378.132812 505.117188 378.132812 "/>
<path fill-rule="nonzero" fill="rgb(13.725281%, 12.156677%, 12.548828%)" fill-opacity="1" d="M 513.148438 378.132812 C 513.453125 378.132812 513.738281 378.191406 514.007812 378.304688 C 514.273438 378.421875 514.507812 378.574219 514.703125 378.773438 C 514.902344 378.96875 515.054688 379.199219 515.171875 379.46875 C 515.285156 379.738281 515.34375 380.023438 515.34375 380.328125 L 515.34375 386.296875 L 514.800781 386.296875 L 514.800781 380.328125 C 514.800781 380.101562 514.757812 379.882812 514.671875 379.679688 C 514.582031 379.480469 514.464844 379.304688 514.320312 379.15625 C 514.171875 379.007812 513.996094 378.890625 513.792969 378.804688 C 513.59375 378.71875 513.375 378.671875 513.148438 378.671875 C 512.917969 378.671875 512.703125 378.71875 512.5 378.804688 C 512.296875 378.890625 512.121094 379.007812 511.976562 379.15625 C 511.828125 379.304688 511.710938 379.480469 511.625 379.679688 C 511.535156 379.882812 511.492188 380.101562 511.492188 380.328125 L 511.492188 386.296875 L 510.949219 386.296875 L 510.949219 378.214844 L 511.492188 378.214844 L 511.492188 378.886719 C 511.699219 378.648438 511.945312 378.460938 512.230469 378.328125 C 512.511719 378.199219 512.820312 378.132812 513.148438 378.132812 "/>
<path fill-rule="nonzero" fill="rgb(13.725281%, 12.156677%, 12.548828%)" fill-opacity="1" d="M 521.308594 385.835938 C 521.539062 385.835938 521.753906 385.792969 521.957031 385.703125 C 522.160156 385.617188 522.332031 385.5 522.480469 385.351562 C 522.628906 385.203125 522.746094 385.03125 522.832031 384.828125 C 522.921875 384.625 522.964844 384.410156 522.964844 384.179688 L 523.503906 384.179688 C 523.503906 384.488281 523.449219 384.773438 523.332031 385.039062 C 523.21875 385.308594 523.0625 385.542969 522.867188 385.738281 C 522.667969 385.933594 522.4375 386.089844 522.167969 386.203125 C 521.902344 386.320312 521.613281 386.378906 521.308594 386.378906 C 521.003906 386.378906 520.714844 386.320312 520.449219 386.203125 C 520.179688 386.089844 519.949219 385.933594 519.75 385.738281 C 519.554688 385.542969 519.398438 385.308594 519.285156 385.039062 C 519.167969 384.773438 519.113281 384.488281 519.113281 384.179688 L 519.113281 380.328125 C 519.113281 380.023438 519.167969 379.738281 519.285156 379.46875 C 519.398438 379.199219 519.554688 378.96875 519.75 378.773438 C 519.949219 378.574219 520.179688 378.417969 520.449219 378.304688 C 520.714844 378.191406 521.003906 378.132812 521.308594 378.132812 C 521.613281 378.132812 521.902344 378.191406 522.167969 378.304688 C 522.4375 378.417969 522.667969 378.574219 522.867188 378.773438 C 523.0625 378.96875 523.21875 379.199219 523.332031 379.46875 C 523.449219 379.738281 523.503906 380.023438 523.503906 380.328125 L 522.964844 380.328125 C 522.964844 380.101562 522.921875 379.882812 522.832031 379.679688 C 522.746094 379.480469 522.628906 379.304688 522.480469 379.15625 C 522.332031 379.007812 522.160156 378.890625 521.957031 378.804688 C 521.753906 378.71875 521.539062 378.671875 521.308594 378.671875 C 521.078125 378.671875 520.863281 378.71875 520.660156 378.804688 C 520.460938 378.890625 520.285156 379.007812 520.136719 379.15625 C 519.988281 379.304688 519.871094 379.480469 519.785156 379.679688 C 519.695312 379.882812 519.652344 380.101562 519.652344 380.328125 L 519.652344 384.179688 C 519.652344 384.410156 519.695312 384.625 519.785156 384.828125 C 519.871094 385.03125 519.988281 385.203125 520.136719 385.351562 C 520.285156 385.5 520.460938 385.617188 520.660156 385.703125 C 520.863281 385.792969 521.078125 385.835938 521.308594 385.835938 "/>
<path fill-rule="nonzero" fill="rgb(13.725281%, 12.156677%, 12.548828%)" fill-opacity="1" d="M 529.472656 378.671875 C 529.242188 378.671875 529.027344 378.71875 528.824219 378.804688 C 528.621094 378.890625 528.445312 379.007812 528.296875 379.15625 C 528.152344 379.304688 528.035156 379.480469 527.945312 379.679688 C 527.859375 379.882812 527.816406 380.101562 527.816406 380.328125 L 527.816406 382.214844 C 527.980469 382.148438 528.183594 382.070312 528.421875 381.976562 C 528.664062 381.882812 528.902344 381.792969 529.144531 381.707031 C 529.382812 381.617188 529.605469 381.535156 529.808594 381.460938 C 530.007812 381.382812 530.15625 381.328125 530.242188 381.296875 C 530.4375 381.21875 530.636719 381.105469 530.832031 380.953125 C 531.027344 380.800781 531.125 380.585938 531.125 380.3125 C 531.125 380.082031 531.082031 379.871094 530.996094 379.671875 C 530.90625 379.476562 530.789062 379.304688 530.644531 379.15625 C 530.496094 379.007812 530.320312 378.890625 530.117188 378.804688 C 529.914062 378.71875 529.699219 378.671875 529.472656 378.671875 M 530.421875 381.804688 C 530.324219 381.835938 530.160156 381.898438 529.929688 381.992188 C 529.699219 382.085938 529.453125 382.179688 529.183594 382.277344 C 528.914062 382.378906 528.65625 382.476562 528.40625 382.574219 C 528.15625 382.671875 527.957031 382.742188 527.816406 382.789062 L 527.816406 384.179688 C 527.816406 384.410156 527.859375 384.625 527.945312 384.828125 C 528.035156 385.03125 528.152344 385.203125 528.296875 385.351562 C 528.445312 385.5 528.621094 385.617188 528.824219 385.707031 C 529.027344 385.792969 529.242188 385.835938 529.472656 385.835938 C 529.699219 385.835938 529.914062 385.792969 530.117188 385.707031 C 530.320312 385.617188 530.496094 385.5 530.644531 385.351562 C 530.789062 385.203125 530.90625 385.03125 530.996094 384.828125 C 531.082031 384.625 531.125 384.410156 531.125 384.179688 L 531.667969 384.179688 C 531.667969 384.488281 531.609375 384.773438 531.496094 385.039062 C 531.378906 385.308594 531.226562 385.542969 531.027344 385.738281 C 530.832031 385.933594 530.597656 386.089844 530.332031 386.203125 C 530.0625 386.320312 529.777344 386.378906 529.472656 386.378906 C 529.164062 386.378906 528.878906 386.320312 528.609375 386.203125 C 528.34375 386.089844 528.109375 385.933594 527.914062 385.738281 C 527.71875 385.542969 527.5625 385.308594 527.445312 385.039062 C 527.332031 384.773438 527.273438 384.488281 527.273438 384.179688 L 527.273438 380.328125 C 527.273438 380.023438 527.332031 379.738281 527.445312 379.46875 C 527.5625 379.199219 527.71875 378.96875 527.914062 378.773438 C 528.109375 378.574219 528.34375 378.421875 528.609375 378.304688 C 528.878906 378.191406 529.164062 378.132812 529.472656 378.132812 C 529.777344 378.132812 530.0625 378.191406 530.332031 378.304688 C 530.597656 378.421875 530.832031 378.574219 531.027344 378.773438 C 531.226562 378.96875 531.378906 379.199219 531.496094 379.46875 C 531.609375 379.738281 531.667969 380.019531 531.667969 380.3125 L 531.667969 380.328125 C 531.667969 381.007812 531.253906 381.5 530.421875 381.804688 "/>
<path fill-rule="nonzero" fill="rgb(13.725281%, 12.156677%, 12.548828%)" fill-opacity="1" d="M 287.464844 295.652344 C 290.757812 295.652344 293.84375 296.296875 296.726562 297.582031 C 299.609375 298.871094 302.128906 300.59375 304.289062 302.753906 C 306.453125 304.914062 308.171875 307.4375 309.460938 310.316406 C 310.746094 313.199219 311.390625 316.285156 311.390625 319.578125 L 311.390625 362.796875 C 311.390625 363.722656 310.875 364.183594 309.847656 364.183594 C 308.921875 364.183594 308.457031 363.722656 308.457031 362.796875 L 308.457031 319.578125 C 308.457031 316.699219 307.917969 313.972656 306.835938 311.398438 C 305.757812 308.824219 304.265625 306.585938 302.359375 304.683594 C 300.457031 302.78125 298.21875 301.289062 295.648438 300.207031 C 293.074219 299.125 290.347656 298.585938 287.464844 298.585938 C 285.40625 298.585938 283.609375 298.792969 282.066406 299.203125 C 277.433594 300.4375 273.675781 302.933594 270.796875 306.6875 C 267.914062 310.449219 266.476562 314.742188 266.476562 319.578125 L 266.476562 362.796875 C 266.476562 363.722656 265.960938 364.183594 264.933594 364.183594 C 264.003906 364.183594 263.542969 363.722656 263.542969 362.796875 L 263.542969 319.578125 C 263.542969 314.125 265.1875 309.261719 268.480469 304.992188 C 271.773438 300.722656 276.042969 297.867188 281.292969 296.425781 C 282.320312 296.21875 283.324219 296.039062 284.300781 295.882812 C 285.28125 295.730469 286.332031 295.652344 287.464844 295.652344 "/>
<path fill-rule="nonzero" fill="rgb(13.725281%, 12.156677%, 12.548828%)" fill-opacity="1" d="M 267.320312 307.714844 C 264.160156 303.449219 258.835938 299.078125 253.800781 297.632812 C 252.816406 297.429688 251.855469 297.25 250.914062 297.09375 C 249.976562 296.9375 248.964844 296.863281 247.878906 296.863281 C 244.71875 296.863281 241.757812 297.507812 238.992188 298.789062 C 236.230469 300.078125 233.808594 301.800781 231.734375 303.960938 C 229.664062 306.121094 228.011719 308.644531 226.773438 311.523438 C 225.539062 314.40625 224.921875 317.492188 224.921875 320.785156 L 224.921875 364.003906 C 224.921875 364.929688 225.417969 365.394531 226.402344 365.394531 C 227.292969 365.394531 227.738281 364.929688 227.738281 364.003906 L 227.738281 320.785156 C 227.738281 317.90625 228.253906 315.179688 229.292969 312.605469 C 230.328125 310.035156 231.761719 307.796875 233.585938 305.890625 C 235.414062 303.988281 237.5625 302.496094 240.027344 301.414062 C 242.5 300.332031 245.117188 299.792969 247.878906 299.792969 C 249.855469 299.792969 251.582031 300 253.0625 300.414062 C 257.503906 301.648438 262.574219 304.898438 265.957031 310.207031 "/>
<path fill-rule="nonzero" fill="rgb(13.725281%, 12.156677%, 12.548828%)" fill-opacity="1" d="M 390.261719 295.808594 C 391.1875 295.808594 391.652344 296.269531 391.652344 297.195312 L 391.652344 362.796875 C 391.652344 363.722656 391.1875 364.183594 390.261719 364.183594 C 389.230469 364.183594 388.71875 363.722656 388.71875 362.796875 L 388.71875 329.917969 C 388.71875 325.597656 387.894531 321.535156 386.246094 317.726562 C 384.601562 313.921875 382.363281 310.601562 379.535156 307.769531 C 376.703125 304.941406 373.382812 302.703125 369.578125 301.054688 C 365.769531 299.410156 361.707031 298.585938 357.386719 298.585938 C 353.0625 298.585938 348.996094 299.410156 345.191406 301.054688 C 341.382812 302.703125 338.066406 304.941406 335.234375 307.769531 C 332.40625 310.601562 330.167969 313.921875 328.523438 317.726562 C 326.875 321.535156 326.050781 325.597656 326.050781 329.917969 C 326.050781 334.242188 326.875 338.308594 328.523438 342.113281 C 330.167969 345.921875 332.40625 349.238281 335.234375 352.066406 C 338.066406 354.898438 341.382812 357.136719 345.191406 358.78125 C 348.996094 360.429688 353.0625 361.253906 357.386719 361.253906 C 363.148438 361.253906 368.550781 359.761719 373.59375 356.777344 C 374.414062 356.367188 375.082031 356.519531 375.597656 357.238281 C 375.90625 358.164062 375.699219 358.835938 374.980469 359.246094 C 369.628906 362.539062 363.765625 364.183594 357.386719 364.183594 C 352.652344 364.183594 348.203125 363.285156 344.035156 361.484375 C 339.867188 359.683594 336.238281 357.238281 333.152344 354.152344 C 330.0625 351.0625 327.621094 347.4375 325.820312 343.269531 C 324.019531 339.101562 323.117188 334.652344 323.117188 329.917969 C 323.117188 325.1875 324.019531 320.734375 325.820312 316.566406 C 327.621094 312.402344 330.0625 308.773438 333.152344 305.6875 C 336.238281 302.597656 339.867188 300.15625 344.035156 298.355469 C 348.203125 296.554688 352.652344 295.652344 357.386719 295.652344 C 364.484375 295.652344 370.8125 297.558594 376.371094 301.363281 C 381.925781 305.171875 386.042969 310.109375 388.71875 316.179688 L 388.71875 297.195312 C 388.71875 296.269531 389.230469 295.808594 390.261719 295.808594 "/>
<path fill-rule="nonzero" fill="rgb(13.725281%, 12.156677%, 12.548828%)" fill-opacity="1" d="M 439.808594 295.652344 C 444.539062 295.652344 448.992188 296.554688 453.160156 298.355469 C 457.328125 300.15625 460.953125 302.597656 464.042969 305.6875 C 467.128906 308.773438 469.570312 312.402344 471.375 316.566406 C 473.171875 320.734375 474.074219 325.1875 474.074219 329.917969 C 474.074219 334.652344 473.171875 339.101562 471.375 343.269531 C 469.570312 347.4375 467.128906 351.066406 464.042969 354.152344 C 460.953125 357.238281 457.328125 359.683594 453.160156 361.484375 C 448.992188 363.285156 444.539062 364.183594 439.808594 364.183594 C 433.425781 364.183594 427.511719 362.539062 422.058594 359.246094 C 421.335938 358.730469 421.183594 358.0625 421.59375 357.238281 C 422.210938 356.417969 422.878906 356.261719 423.601562 356.777344 C 428.640625 359.761719 434.042969 361.253906 439.808594 361.253906 C 444.128906 361.253906 448.195312 360.429688 452 358.78125 C 455.808594 357.136719 459.125 354.898438 461.957031 352.066406 C 464.785156 349.238281 467.023438 345.921875 468.671875 342.113281 C 470.316406 338.304688 471.140625 334.242188 471.140625 329.917969 C 471.140625 325.597656 470.316406 321.535156 468.671875 317.726562 C 467.023438 313.921875 464.785156 310.601562 461.957031 307.769531 C 459.125 304.941406 455.808594 302.703125 452 301.054688 C 448.195312 299.410156 444.128906 298.585938 439.808594 298.585938 C 435.488281 298.585938 431.421875 299.410156 427.613281 301.054688 C 423.808594 302.703125 420.488281 304.941406 417.660156 307.769531 C 414.828125 310.601562 412.589844 313.921875 410.945312 317.726562 C 409.296875 321.535156 408.472656 325.597656 408.472656 329.917969 L 408.472656 403.082031 C 408.472656 404.007812 407.957031 404.46875 406.933594 404.46875 C 406.003906 404.46875 405.542969 404.007812 405.542969 403.082031 L 405.542969 297.042969 C 405.542969 296.117188 406.003906 295.652344 406.933594 295.652344 C 407.957031 295.652344 408.472656 296.117188 408.472656 297.042969 L 408.472656 316.179688 C 411.148438 310.113281 415.265625 305.171875 420.824219 301.363281 C 426.378906 297.558594 432.707031 295.652344 439.808594 295.652344 "/>
<path fill-rule="nonzero" fill="rgb(13.725281%, 12.156677%, 12.548828%)" fill-opacity="1" d="M 518.234375 295.652344 C 522.449219 295.652344 526.464844 296.375 530.273438 297.816406 C 534.078125 299.257812 537.472656 301.238281 540.457031 303.757812 C 543.441406 306.28125 545.964844 309.3125 548.023438 312.863281 C 550.082031 316.414062 551.417969 320.25 552.035156 324.363281 C 552.242188 325.289062 551.828125 325.855469 550.800781 326.058594 L 503.414062 326.058594 C 502.488281 326.058594 502.027344 325.597656 502.027344 324.671875 C 502.027344 323.644531 502.488281 323.128906 503.414062 323.128906 L 548.792969 323.128906 C 547.96875 319.527344 546.632812 316.234375 544.78125 313.25 C 542.929688 310.265625 540.664062 307.691406 537.988281 305.53125 C 535.3125 303.371094 532.277344 301.671875 528.882812 300.4375 C 525.488281 299.203125 521.9375 298.585938 518.234375 298.585938 C 512.777344 298.585938 507.738281 299.847656 503.105469 302.367188 C 498.476562 304.890625 494.667969 308.464844 491.683594 313.09375 C 489.523438 316.699219 488.03125 320.605469 487.207031 324.824219 C 487 325.648438 486.898438 326.5 486.898438 327.371094 L 486.898438 329.917969 C 486.898438 334.242188 487.722656 338.304688 489.371094 342.113281 C 491.015625 345.921875 493.253906 349.238281 496.082031 352.066406 C 498.914062 354.898438 502.230469 357.136719 506.039062 358.78125 C 509.84375 360.429688 513.910156 361.253906 518.234375 361.253906 C 523.171875 361.253906 527.828125 360.171875 532.199219 358.011719 C 536.574219 355.851562 540.253906 352.816406 543.238281 348.902344 C 544.78125 346.847656 545.964844 344.839844 546.789062 342.886719 C 546.992188 342.578125 547.273438 342.34375 547.636719 342.191406 C 547.996094 342.035156 548.332031 342.0625 548.640625 342.265625 C 549.464844 342.578125 549.71875 343.195312 549.410156 344.121094 C 548.277344 346.589844 546.992188 348.75 545.554688 350.601562 C 542.257812 354.921875 538.246094 358.269531 533.511719 360.636719 C 528.78125 363.003906 523.683594 364.183594 518.234375 364.183594 C 513.5 364.183594 509.050781 363.285156 504.882812 361.484375 C 500.714844 359.683594 497.085938 357.238281 494 354.152344 C 490.910156 351.066406 488.46875 347.4375 486.667969 343.269531 C 484.867188 339.101562 483.964844 334.652344 483.964844 329.917969 C 483.964844 328.066406 484.121094 326.214844 484.429688 324.363281 C 484.839844 321.996094 485.433594 319.757812 486.207031 317.648438 C 486.976562 315.539062 488.03125 313.507812 489.371094 311.550781 C 492.558594 306.511719 496.699219 302.597656 501.792969 299.820312 C 506.886719 297.042969 512.367188 295.652344 518.234375 295.652344 "/>
<path fill-rule="nonzero" fill="rgb(13.725281%, 12.156677%, 12.548828%)" fill-opacity="1" d="M 575.351562 341.648438 C 574.734375 341.648438 574.273438 341.339844 573.964844 340.722656 L 557.292969 297.507812 C 557.089844 297.195312 557.0625 296.863281 557.21875 296.503906 C 557.371094 296.144531 557.652344 295.910156 558.066406 295.808594 C 558.375 295.601562 558.707031 295.574219 559.070312 295.730469 C 559.429688 295.886719 559.660156 296.167969 559.765625 296.582031 L 576.585938 339.796875 C 576.996094 340.621094 576.742188 341.1875 575.816406 341.496094 C 575.710938 341.597656 575.558594 341.648438 575.351562 341.648438 "/>
<path fill-rule="nonzero" fill="rgb(13.725281%, 12.156677%, 12.548828%)" fill-opacity="1" d="M 616.101562 296.269531 C 616.820312 296.789062 617.027344 297.40625 616.71875 298.121094 L 566.246094 401.847656 C 565.9375 402.359375 565.476562 402.617188 564.855469 402.617188 C 564.648438 402.617188 564.496094 402.566406 564.394531 402.464844 C 563.570312 402.15625 563.3125 401.539062 563.621094 400.613281 L 614.25 297.042969 C 614.558594 296.21875 615.175781 295.960938 616.101562 296.269531 "/>
<path fill-rule="evenodd" fill="rgb(47.450256%, 80.392456%, 95.294189%)" fill-opacity="1" d="M 395.410156 222.273438 C 398.628906 224.355469 402.164062 226.246094 405.925781 227.890625 C 409.726562 229.550781 413.785156 230.980469 417.996094 232.132812 C 422.285156 233.308594 426.773438 234.210938 431.335938 234.8125 C 432.496094 234.96875 433.664062 235.101562 434.835938 235.21875 L 444.953125 213.71875 C 441.832031 213.988281 438.667969 214.125 435.503906 214.125 C 430.683594 214.125 425.863281 213.808594 421.183594 213.191406 C 416.621094 212.585938 412.128906 211.683594 407.839844 210.507812 C 403.628906 209.355469 399.570312 207.925781 395.769531 206.265625 C 392.003906 204.617188 388.464844 202.726562 385.25 200.644531 C 383.023438 199.203125 380.742188 197.660156 378.828125 196.042969 L 386.839844 216.757812 C 388.746094 218.367188 393.195312 220.839844 395.410156 222.273438 "/>
<path fill-rule="evenodd" fill="rgb(78.039551%, 89.804077%, 97.254944%)" fill-opacity="1" d="M 395.777344 206.253906 C 399.574219 207.914062 403.636719 209.339844 407.84375 210.496094 C 412.132812 211.667969 416.621094 212.570312 421.183594 213.175781 C 425.867188 213.796875 430.683594 214.109375 435.503906 214.109375 C 438.671875 214.109375 441.835938 213.972656 444.960938 213.703125 L 456.078125 190.082031 L 376.226562 190.082031 L 378.828125 196.039062 C 380.75 197.667969 383.023438 199.1875 385.257812 200.632812 C 388.476562 202.714844 392.011719 204.609375 395.777344 206.253906 "/>
<path fill-rule="evenodd" fill="rgb(51.373291%, 69.020081%, 87.059021%)" fill-opacity="1" d="M 394.027344 235.21875 C 396.570312 237.652344 404.738281 242.375 407.953125 244.457031 C 411.167969 246.539062 414.707031 248.429688 418.46875 250.078125 C 421.015625 251.191406 423.679688 252.195312 426.425781 253.085938 L 434.832031 235.230469 C 433.65625 235.117188 432.492188 234.980469 431.332031 234.828125 C 426.769531 234.222656 422.28125 233.320312 417.992188 232.144531 C 413.78125 230.992188 409.722656 229.566406 405.921875 227.902344 C 402.15625 226.257812 398.617188 224.367188 395.402344 222.285156 C 393.195312 220.855469 388.742188 218.363281 386.839844 216.757812 L 394.027344 235.21875 "/>
<path fill-rule="evenodd" fill="rgb(15.686035%, 63.529968%, 85.882568%)" fill-opacity="1" d="M 416.152344 277 L 426.421875 253.101562 C 423.675781 252.210938 421.007812 251.203125 418.460938 250.089844 C 414.699219 248.441406 411.160156 246.550781 407.945312 244.46875 C 404.726562 242.386719 403.28125 241.664062 399.917969 239.449219 C 399.433594 239.132812 394.425781 235.628906 394.027344 235.21875 L 406.128906 266.308594 Z M 416.152344 277 "/>
</svg>
